<svg height="33" width="33" viewBox="0 0 192 192" fill="none" xmlns="http://www.w3.org/2000/svg">
<circle cx="96" cy="96" r="96" fill="white"/>
<circle cx="96" cy="96" r="79.5429" stroke="black"/>
<path d="M76.048 132.48C63.376 132.48 53.68 129.568 46.96 123.744C40.24 117.856 36.88 109.152 36.88 97.632C36.88 86.176 40.24 77.504 46.96 71.616C53.68 65.728 63.376 62.816 76.048 62.88L110.608 63.072V75.36H77.104C68.784 75.36 62.608 77.12 58.576 80.64C54.544 84.16 52.528 89.824 52.528 97.632C52.528 105.44 54.544 111.136 58.576 114.72C62.608 118.24 68.784 120 77.104 120H111.568V132.48H76.048Z" fill="black"/>
<path d="M46.96 123.744L46.6305 124.12L46.6325 124.122L46.96 123.744ZM46.96 71.616L46.6305 71.2399L46.96 71.616ZM76.048 62.88L76.0508 62.38L76.0505 62.38L76.048 62.88ZM110.608 63.072H111.108V62.5748L110.611 62.572L110.608 63.072ZM110.608 75.36V75.86H111.108V75.36H110.608ZM58.576 80.64L58.9048 81.0167L58.9048 81.0167L58.576 80.64ZM58.576 114.72L58.2438 115.094L58.2472 115.097L58.576 114.72ZM111.568 120H112.068V119.5H111.568V120ZM111.568 132.48V132.98H112.068V132.48H111.568ZM76.048 131.98C63.4458 131.98 53.8846 129.084 47.2875 123.366L46.6325 124.122C53.4755 130.052 63.3062 132.98 76.048 132.98V131.98ZM47.2895 123.368C40.7074 117.601 37.38 109.052 37.38 97.632H36.38C36.38 109.252 39.7726 118.111 46.6305 124.12L47.2895 123.368ZM37.38 97.632C37.38 86.2766 40.7068 77.7598 47.2895 71.9921L46.6305 71.2399C39.7732 77.2482 36.38 86.0754 36.38 97.632H37.38ZM47.2895 71.9921C53.8856 66.2126 63.4449 63.3164 76.0455 63.38L76.0505 62.38C63.3071 62.3156 53.4744 65.2434 46.6305 71.2399L47.2895 71.9921ZM76.0452 63.38L110.605 63.572L110.611 62.572L76.0508 62.38L76.0452 63.38ZM110.108 63.072V75.36H111.108V63.072H110.108ZM110.608 74.86H77.104V75.86H110.608V74.86ZM77.104 74.86C68.7271 74.86 62.4091 76.6299 58.2472 80.2633L58.9048 81.0167C62.8069 77.6101 68.8409 75.86 77.104 75.86V74.86ZM58.2472 80.2633C54.0641 83.9152 52.028 89.7473 52.028 97.632H53.028C53.028 89.9007 55.0239 84.4048 58.9048 81.0167L58.2472 80.2633ZM52.028 97.632C52.028 105.518 54.0645 111.379 58.2438 115.094L58.9082 114.346C55.0235 110.893 53.028 105.362 53.028 97.632H52.028ZM58.2472 115.097C62.4091 118.73 68.7271 120.5 77.104 120.5V119.5C68.8409 119.5 62.8069 117.75 58.9048 114.343L58.2472 115.097ZM77.104 120.5H111.568V119.5H77.104V120.5ZM111.068 120V132.48H112.068V120H111.068ZM111.568 131.98H76.048V132.98H111.568V131.98Z" fill="black"/>
<path d="M101.48 132V86.24H111.848L144.232 119.136V86.24H154.472V132H144.104L111.72 99.04V132H101.48Z" fill="black"/>
<path d="M101.48 132H100.98V132.5H101.48V132ZM101.48 86.24V85.74H100.98V86.24H101.48ZM111.848 86.24L112.204 85.8892L112.057 85.74H111.848V86.24ZM144.232 119.136L143.876 119.487L144.732 120.357V119.136H144.232ZM144.232 86.24V85.74H143.732V86.24H144.232ZM154.472 86.24H154.972V85.74H154.472V86.24ZM154.472 132V132.5H154.972V132H154.472ZM144.104 132L143.747 132.35L143.894 132.5H144.104V132ZM111.72 99.04L112.077 98.6896L111.22 97.8177V99.04H111.72ZM111.72 132V132.5H112.22V132H111.72ZM101.98 132V86.24H100.98V132H101.98ZM101.48 86.74H111.848V85.74H101.48V86.74ZM111.492 86.5908L143.876 119.487L144.588 118.785L112.204 85.8892L111.492 86.5908ZM144.732 119.136V86.24H143.732V119.136H144.732ZM144.232 86.74H154.472V85.74H144.232V86.74ZM153.972 86.24V132H154.972V86.24H153.972ZM154.472 131.5H144.104V132.5H154.472V131.5ZM144.461 131.65L112.077 98.6896L111.363 99.3904L143.747 132.35L144.461 131.65ZM111.22 99.04V132H112.22V99.04H111.22ZM111.72 131.5H101.48V132.5H111.72V131.5Z" fill="black"/>
</svg>
